<svg xmlns="http://www.w3.org/2000/svg" viewBox="0 0 256 257"><defs><linearGradient id="a" x1="-.828%" x2="57.636%" y1="7.652%" y2="78.411%"><stop offset="0%" stop-color="#41D1FF"/><stop offset="100%" stop-color="#BD34FE"/></linearGradient><linearGradient id="b" x1="43.376%" x2="50.316%" y1="2.242%" y2="89.03%"><stop offset="0%" stop-color="#FFEA83"/><stop offset="8.333%" stop-color="#FFDD35"/><stop offset="100%" stop-color="#FFA800"/></linearGradient></defs><path fill="url(#a)" d="M255.153 37.938 134.897 252.976c-2.483 4.44-8.862 4.466-11.382.048L.875 37.958c-2.746-4.814 1.371-10.646 6.827-9.67l120.385 21.517a6.537 6.537 0 0 0 2.322-.004l117.867-21.483c5.438-.991 9.574 4.796 6.877 9.62Z"/><path fill="url(#b)" d="M185.432.063 96.44 17.501a3.268 3.268 0 0 0-2.634 3.014l-5.474 92.456a3.268 3.268 0 0 0 3.997 3.378l24.777-5.718-7.351 34.523a3.268 3.268 0 0 0 4.158 3.75l15.304-4.647-11.698 56.621c-.732 3.542 3.979 5.473 5.943 2.437l1.313-2.028 72.516-144.72c1.215-2.423-.88-5.186-3.54-4.672l-25.505 4.922 16.646-52.346c.596-1.874-1.055-3.683-3.46-3.408Z"/></svg>
